<?xml version="1.0" encoding="UTF-8" standalone="no"?><!DOCTYPE svg PUBLIC "-//W3C//DTD SVG 1.1//EN" "http://www.w3.org/Graphics/SVG/1.1/DTD/svg11.dtd"><svg width="100%" height="100%" viewBox="0 0 185 68" version="1.1" xmlns="http://www.w3.org/2000/svg" xmlns:xlink="http://www.w3.org/1999/xlink" xml:space="preserve" xmlns:serif="http://www.serif.com/" style="fill-rule:evenodd;clip-rule:evenodd;stroke-linejoin:round;stroke-miterlimit:2;"><path d="M-0.06,3l0,26.6l4.14,0l0,-26.6l-4.14,0Zm4.29,0l2.59,26.6l1.4,0l-2.58,-26.6l-1.41,0Zm6.73,0l-2.58,26.6l1.4,0l2.59,-26.6l-1.41,0Zm1.56,0l0,26.6l4.18,0l0,-26.6l-4.18,0Zm15.69,0l0,20.48c0,3.57 3.23,6.35 6.69,6.35c3.46,0 6.69,-2.78 6.69,-6.35l0,-20.48l-4.18,0l0,20.33c0,1.44 -1.29,2.47 -2.51,2.47c-1.22,0 -2.51,-1.03 -2.51,-2.47l0,-20.33l-4.18,0Zm26.26,0l0,26.6l4.18,0l0,-26.6l-4.18,0Zm4.33,0l3.95,26.6l1.45,0l-3.95,-26.6l-1.45,0Zm5.55,0l0,26.6l4.18,0l0,-26.6l-4.18,0Zm18.05,25.12l0,1.48l11.36,0l0,-1.48l-3.61,0l0,-23.64l3.61,0l0,-1.48l-11.36,0l0,1.48l3.57,0l0,23.64l-3.57,0Z" style="fill:#0000dc;fill-rule:nonzero;"/><path d="M6.21,41.5l-5.74,26.6l2.13,0l1.79,-8.4l7.75,0l1.82,8.4l2.13,0l-5.66,-26.6l-2.05,0l3.42,16.3l-7.07,0l3.49,-16.3l-2.01,0Zm22.72,0l0,26.6l2.06,0l0,-11.25l3.45,0l6.31,11.25l2.36,0l-6.5,-11.48c3.12,-0.26 5.59,-2.88 5.59,-6.11l0,-2.66c0,-3.46 -2.89,-6.35 -6.35,-6.35l-6.92,0Zm6.73,13.41l-4.67,0l0,-11.51l4.67,0c2.43,0 4.52,1.98 4.52,4.48l0,2.4c0,2.73 -1.97,4.63 -4.52,4.63Zm24.81,-11.51l0,24.7l2.06,0l0,-24.7l7.1,0l0,-1.9l-16.26,0l0,1.9l7.1,0Zm27.63,24.93c3.65,0 6.57,-2.59 6.57,-6.35l0,-1.63c0,-4.33 -3.64,-5.82 -6.15,-6.39c-2.32,-0.53 -4.94,-1.4 -4.94,-4.52l0,-1.78c0,-2.47 2.13,-4.41 4.52,-4.41c2.36,0 4.52,1.94 4.52,4.41l0,0.95l2.05,0l0,-0.99c0,-3.65 -2.92,-6.35 -6.57,-6.35c-3.65,0 -6.57,2.7 -6.57,6.35l0,1.82c0,4.45 3.76,5.85 6.08,6.39c2.43,0.53 5.01,1.4 5.01,4.56l0,1.55c0,2.47 -2.13,4.41 -4.48,4.41c-2.4,0 -4.56,-1.94 -4.56,-4.41l0,-0.87l-2.05,0l0,0.91c0,3.76 2.92,6.35 6.57,6.35Z" style="fill:#0000dc;fill-rule:nonzero;"/><path d="M111.23,3.01l0,10.68l3.55,0c3.63,0 5.67,-1.92 5.67,-5.34c0,-3.42 -2.04,-5.34 -5.67,-5.34l-3.55,0Zm2.19,1.89l1.33,0c2.3,0 3.42,1.14 3.42,3.45c0,2.31 -1.12,3.45 -3.42,3.45l-1.33,0l0,-6.9Zm10.71,-0.09l0,-1.8l-2.1,0l0,1.8l2.1,0Zm0,8.88l0,-7.62l-2.1,0l0,7.62l2.1,0Zm4.7,-7.83c-1.92,0 -3.15,1.5 -3.15,3.87c0,2.37 1.21,3.87 3.12,3.87c0.91,0 1.56,-0.35 2.13,-1.14l0.03,0l0,0.67c0,1.49 -0.59,1.97 -1.53,1.97c-0.8,0 -1.28,-0.35 -1.32,-0.93l-2.1,0c0.12,1.5 1.27,2.43 3.37,2.43c2.19,0 3.62,-1.08 3.62,-3.39l0,-7.14l-1.98,0l0,1.02l-0.03,0c-0.59,-0.87 -1.24,-1.23 -2.16,-1.23Zm0.57,1.72c0.98,0 1.62,0.86 1.62,2.15c0,1.29 -0.64,2.14 -1.62,2.14c-0.93,0 -1.53,-0.82 -1.53,-2.14c0,-1.32 0.6,-2.15 1.53,-2.15Zm7.74,-2.77l0,-1.8l-2.1,0l0,1.8l2.1,0Zm0,8.88l0,-7.62l-2.1,0l0,7.62l2.1,0Zm5.45,-1.58c-0.71,0 -0.99,-0.33 -0.99,-1.17l0,-3.31l1.46,0l0,-1.56l-1.46,0l0,-1.98l-2.1,0l0,1.98l-1.22,0l0,1.56l1.22,0l0,3.69c0,1.77 0.77,2.47 2.53,2.47c0.35,0 0.82,-0.06 1.1,-0.15l0,-1.6c-0.13,0.04 -0.34,0.07 -0.54,0.07Zm4.92,-6.28c-2.17,0 -3.22,1.17 -3.29,2.62l2.03,0c0.03,-0.72 0.48,-1.15 1.26,-1.15c0.74,0 1.25,0.39 1.25,1.35l0,0.27c-0.48,0.03 -1.34,0.12 -1.91,0.21c-2.2,0.34 -2.95,1.18 -2.95,2.43c0,1.32 0.98,2.31 2.6,2.31c1.04,0 1.9,-0.39 2.47,-1.2l0.03,0c0,0.37 0.03,0.7 0.1,1.02l1.9,0c-0.14,-0.51 -0.22,-1.13 -0.22,-2.09l0,-2.76c0,-1.99 -1.11,-3.01 -3.27,-3.01Zm1.25,4.65c0,0.69 -0.07,1.09 -0.44,1.45c-0.3,0.3 -0.76,0.44 -1.19,0.44c-0.74,0 -1.13,-0.39 -1.13,-0.96c0,-0.62 0.36,-0.9 1.23,-1.05c0.45,-0.08 1.08,-0.14 1.53,-0.17l0,0.29Zm6.08,3.21l0,-10.68l-2.1,0l0,10.68l2.1,0Zm4.13,-8.88l0,-1.8l-2.09,0l0,1.8l2.09,0Zm0,8.88l0,-7.62l-2.09,0l0,7.62l2.09,0Zm5.03,-7.86c-2.18,0 -3.23,1.17 -3.3,2.62l2.04,0c0.03,-0.72 0.48,-1.15 1.26,-1.15c0.73,0 1.24,0.39 1.24,1.35l0,0.27c-0.48,0.03 -1.33,0.12 -1.9,0.21c-2.21,0.34 -2.96,1.18 -2.96,2.43c0,1.32 0.98,2.31 2.6,2.31c1.05,0 1.9,-0.39 2.47,-1.2l0.03,0c0,0.37 0.03,0.7 0.11,1.02l1.89,0c-0.14,-0.51 -0.21,-1.13 -0.21,-2.09l0,-2.76c0,-1.99 -1.11,-3.01 -3.27,-3.01Zm1.24,4.65c0,0.69 -0.07,1.09 -0.43,1.45c-0.3,0.3 -0.77,0.44 -1.2,0.44c-0.74,0 -1.13,-0.39 -1.13,-0.96c0,-0.62 0.36,-0.9 1.23,-1.05c0.45,-0.08 1.08,-0.14 1.53,-0.17l0,0.29Z" style="fill:#0000dc;fill-rule:nonzero;"/><path d="M111.23,21.01l0,10.68l2.21,0l0,-3.78l1.83,0c2.59,0 3.91,-1.38 3.91,-3.45c0,-2.07 -1.32,-3.45 -3.91,-3.45l-4.04,0Zm2.21,1.83l1.53,0c1.39,0 1.96,0.61 1.96,1.62c0,1 -0.57,1.62 -1.96,1.62l-1.53,0l0,-3.24Zm11.17,1.11c-0.9,0 -1.58,0.37 -2.09,1.2l-0.03,0l0,-1.08l-1.93,0l0,7.62l2.1,0l0,-3.6c0,-1.5 0.69,-2.31 1.98,-2.31c0.21,0 0.42,0.03 0.66,0.07l0,-1.81c-0.21,-0.06 -0.48,-0.09 -0.69,-0.09Zm5.05,-0.12c-2.38,0 -3.9,1.57 -3.9,4.05c0,2.47 1.52,4.05 3.9,4.05c2.39,0 3.9,-1.58 3.9,-4.05c0,-2.48 -1.51,-4.05 -3.9,-4.05Zm0,1.62c1.04,0 1.7,0.94 1.7,2.43c0,1.48 -0.66,2.43 -1.7,2.43c-1.03,0 -1.69,-0.95 -1.69,-2.43c0,-1.49 0.66,-2.43 1.69,-2.43Zm7.58,-2.64l0,-1.8l-2.1,0l0,1.8l2.1,0Zm0,1.26l-2.1,0l0,7.47c0,1.09 -0.39,1.41 -1.13,1.41c-0.15,0 -0.28,-0.02 -0.4,-0.04l0,1.51c0.3,0.07 0.64,0.12 1.03,0.12c1.52,0 2.6,-0.77 2.6,-2.69l0,-7.78Zm5.34,6.37c-0.9,0 -1.67,-0.55 -1.73,-2.13l5.48,0c0,-0.84 -0.08,-1.42 -0.24,-1.95c-0.48,-1.54 -1.77,-2.53 -3.53,-2.53c-2.38,0 -3.78,1.74 -3.78,3.99c0,2.43 1.4,4.11 3.8,4.11c2.02,0 3.34,-1.16 3.64,-2.55l-2.14,0c-0.11,0.61 -0.66,1.06 -1.5,1.06Zm-0.02,-5.13c0.84,0 1.53,0.53 1.67,1.68l-3.33,0c0.16,-1.15 0.81,-1.68 1.66,-1.68Zm8.81,-1.48c-2.33,0 -3.84,1.59 -3.84,4.05c0,2.46 1.51,4.05 3.84,4.05c2.05,0 3.43,-1.29 3.6,-3.23l-2.21,0c-0.06,0.99 -0.6,1.61 -1.41,1.61c-1.02,0 -1.63,-0.93 -1.63,-2.43c0,-1.5 0.61,-2.43 1.63,-2.43c0.81,0 1.35,0.55 1.43,1.45l2.19,0c-0.17,-1.78 -1.55,-3.07 -3.6,-3.07Zm8.5,6.28c-0.72,0 -0.99,-0.33 -0.99,-1.17l0,-3.31l1.46,0l0,-1.56l-1.46,0l0,-1.98l-2.1,0l0,1.98l-1.23,0l0,1.56l1.23,0l0,3.69c0,1.77 0.77,2.47 2.52,2.47c0.36,0 0.83,-0.06 1.11,-0.15l0,-1.6c-0.13,0.04 -0.34,0.07 -0.54,0.07Zm4.04,-7.3l0,-1.8l-2.1,0l0,1.8l2.1,0Zm0,8.88l0,-7.62l-2.1,0l0,7.62l2.1,0Zm4.14,0l0,-10.68l-2.1,0l0,10.68l2.1,0Zm5.34,-1.25c-0.9,0 -1.67,-0.55 -1.73,-2.13l5.48,0c0,-0.84 -0.08,-1.42 -0.24,-1.95c-0.48,-1.54 -1.77,-2.53 -3.53,-2.53c-2.38,0 -3.78,1.74 -3.78,3.99c0,2.43 1.4,4.11 3.8,4.11c2.02,0 3.34,-1.16 3.64,-2.55l-2.14,0c-0.11,0.61 -0.66,1.06 -1.5,1.06Zm-0.02,-5.13c0.84,0 1.53,0.53 1.67,1.68l-3.33,0c0.16,-1.15 0.81,-1.68 1.66,-1.68Zm8.21,-1.48c-1.89,0 -3.15,0.97 -3.15,2.34c0,1.77 1.36,2.07 2.64,2.4c1.18,0.31 1.75,0.45 1.75,1.11c0,0.45 -0.37,0.73 -1.11,0.73c-0.87,0 -1.33,-0.43 -1.33,-1.2l-2.13,0c0,1.85 1.3,2.72 3.42,2.72c2.07,0 3.36,-0.96 3.36,-2.39c0,-1.86 -1.5,-2.2 -2.87,-2.56c-1.15,-0.3 -1.63,-0.44 -1.63,-0.98c0,-0.43 0.36,-0.7 1.03,-0.7c0.75,0 1.2,0.33 1.2,1.11l2.01,0c0,-1.7 -1.2,-2.58 -3.19,-2.58Z" style="fill:#0000dc;fill-rule:nonzero;"/></svg>